# xmcd
#
# Track frame offsets:
#	150
#	16120
#	35115
#	54488
#	70648
#	83730
#	99404
#	118750
#	139473
#	156011
#	175870
#	193893
#	213779
#	242521
#	264459
#	286181
#	304096
#
# Disc length: 4444 seconds
#
# Revision: 0
# Processed by: cddbd v1.5.1PL0 Copyright (c) Steve Scherf et al.
# Submitted via: audiograbber 1.83.01
#
DISCID=e7115a11
DTITLE=The Eagles - Complete Greatest Hits CD1
DYEAR=2003
DGENRE=Rock
TTITLE0=Take It Easy
TTITLE1=Witchy Woman
TTITLE2=Peaceful Easy Feeling
TTITLE3=Desperado
TTITLE4=Tequila Sunrise
TTITLE5=Doolin-Dalton
TTITLE6=Already Gone
TTITLE7=The Best Of My Love
TTITLE8=James Dean
TTITLE9=Ol' 55
TTITLE10=Midnight Flyer
TTITLE11=On The Border
TTITLE12=Lyin' Eyes
TTITLE13=One Of These Nights
TTITLE14=Take It To The Limit
TTITLE15=After The Thrill Is Gone
TTITLE16=Hotel California
EXTD=YEAR: 2003
EXTT0=
EXTT1=
EXTT2=
EXTT3=
EXTT4=
EXTT5=
EXTT6=
EXTT7=
EXTT8=
EXTT9=
EXTT10=
EXTT11=
EXTT12=
EXTT13=
EXTT14=
EXTT15=
EXTT16=
PLAYORDER=
